<?xml version="1.0" encoding="UTF-8" standalone="no"?>
<!-- Created with Inkscape (http://www.inkscape.org/) -->

<svg
   xmlns:dc="http://purl.org/dc/elements/1.1/"
   xmlns:cc="http://creativecommons.org/ns#"
   xmlns:rdf="http://www.w3.org/1999/02/22-rdf-syntax-ns#"
   xmlns:svg="http://www.w3.org/2000/svg"
   xmlns="http://www.w3.org/2000/svg"
   xmlns:sodipodi="http://sodipodi.sourceforge.net/DTD/sodipodi-0.dtd"
   xmlns:inkscape="http://www.inkscape.org/namespaces/inkscape"
   width="152.97586mm"
   height="155.19423mm"
   viewBox="0 0 152.97586 155.19423"
   version="1.1"
   id="svg8"
   inkscape:version="0.92.1 r15371"
   sodipodi:docname="atras.svg">
  <defs
     id="defs2" />
  <sodipodi:namedview
     id="base"
     pagecolor="#ffffff"
     bordercolor="#666666"
     borderopacity="1.0"
     inkscape:pageopacity="0.0"
     inkscape:pageshadow="2"
     inkscape:zoom="0.7"
     inkscape:cx="153.05314"
     inkscape:cy="341.71906"
     inkscape:document-units="mm"
     inkscape:current-layer="layer1"
     showgrid="false"
     inkscape:window-width="1366"
     inkscape:window-height="744"
     inkscape:window-x="0"
     inkscape:window-y="0"
     inkscape:window-maximized="1"
     fit-margin-top="20"
     fit-margin-left="20"
     fit-margin-right="20"
     fit-margin-bottom="20"
     inkscape:pagecheckerboard="true" />
  <metadata
     id="metadata5">
    <rdf:RDF>
      <cc:Work
         rdf:about="">
        <dc:format>image/svg+xml</dc:format>
        <dc:type
           rdf:resource="http://purl.org/dc/dcmitype/StillImage" />
        <dc:title />
      </cc:Work>
    </rdf:RDF>
  </metadata>
  <g
     inkscape:label="Layer 1"
     inkscape:groupmode="layer"
     id="layer1"
     transform="translate(-61.596554,-86.746627)">
    <g
       id="g311"
       transform="translate(-1.5875122)"
       style="fill:#ffffff">
      <path
         sodipodi:nodetypes="ccccccccccccc"
         inkscape:connector-curvature="0"
         d="m 95.167818,154.75329 c -1.873824,0 -3.38298,1.50831 -3.382997,3.38212 l 8.82e-4,12.41667 c -1.6e-5,0.93689 0.376715,1.78268 0.988066,2.39408 0.611367,0.61132 1.457154,0.98808 2.394082,0.98805 h 7.290549 54.89417 v -1.00183 -3.38298 -4.26015 -10.53597 l -54.89419,1e-5 z"
         style="fill:#ffffff;stroke-width:0.27037212"
         id="rect70-3-6" />
      <path
         sodipodi:nodetypes="ccccccccccccc"
         inkscape:connector-curvature="0"
         d="m 149.08006,154.75329 v 10.53596 4.26013 3.383 1.00183 h 37.99384 7.29056 c 1.87377,-2e-5 3.38295,-1.50834 3.38298,-3.38215 l -8.7e-4,-12.41665 c 0,-0.9369 -0.37673,-1.78268 -0.9881,-2.39407 -0.61135,-0.61133 -1.45715,-0.98808 -2.39406,-0.98806 h -7.29055 z"
         style="fill:#ffffff;stroke-width:0.27037212"
         id="rect70-3-6-5" />
      <path
         sodipodi:nodetypes="ccccccccccccc"
         inkscape:connector-curvature="0"
         d="m 82.65359,161.93974 c -1.324994,1.32499 -1.325594,3.45866 -6.24e-4,4.78366 l 8.780534,8.77928 c 0.662473,0.6625 1.526924,0.99417 2.391539,0.99421 0.864569,-4e-5 1.729043,-0.33169 2.391528,-0.99422 l 5.155193,-5.15519 38.81604,-38.81604 -0.7084,-0.7084 -2.39213,-2.39213 -3.01238,-3.01238 -7.45005,-7.45006 -38.816045,38.81606 z"
         style="fill:#ffffff;stroke-width:0.27037209"
         id="rect70-3-6-9" />
      <path
         sodipodi:nodetypes="ccccccccccccc"
         inkscape:connector-curvature="0"
         d="m 104.83165,139.76168 7.45004,7.45005 3.01237,3.01237 2.39214,2.39214 0.7084,0.7084 26.8657,-26.8657 5.1552,-5.15521 c 1.32495,-1.32497 1.32555,-3.45866 5.9e-4,-4.78366 l -8.78052,-8.77928 c -0.66249,-0.66248 -1.52692,-0.99417 -2.39155,-0.99417 -0.86456,0 -1.72903,0.33168 -2.39152,0.99418 l -5.15519,5.1552 z"
         style="fill:#ffffff;stroke-width:0.27037209"
         id="rect70-3-6-5-1" />
      <path
         sodipodi:nodetypes="ccccccccccccc"
         inkscape:connector-curvature="0"
         d="m 136.78967,220.94681 c 1.32499,1.32499 3.45866,1.32559 4.78366,6.2e-4 l 8.77928,-8.78053 c 0.6625,-0.66247 0.99417,-1.52692 0.99421,-2.39154 -4e-5,-0.86457 -0.33169,-1.72904 -0.99422,-2.39153 l -5.15519,-5.15519 -38.81604,-38.81604 -0.7084,0.7084 -2.39213,2.39213 -3.01238,3.01238 -7.45006,7.45005 38.81606,38.81604 z"
         style="fill:#ffffff;stroke-width:0.27037209"
         id="rect70-3-6-9-7" />
      <path
         sodipodi:nodetypes="ccccccccccccc"
         inkscape:connector-curvature="0"
         d="m 114.61161,198.76875 7.45005,-7.45004 3.01237,-3.01237 2.39214,-2.39214 0.7084,-0.7084 -26.8657,-26.8657 -5.155206,-5.1552 c -1.32497,-1.32495 -3.458662,-1.32555 -4.783667,-5.9e-4 l -8.779275,8.78052 c -0.662485,0.66249 -0.994169,1.52692 -0.994169,2.39155 0,0.86456 0.331672,1.72903 0.994181,2.39152 l 5.155194,5.15519 z"
         style="fill:#ffffff;stroke-width:0.27037209"
         id="rect70-3-6-5-1-0" />
    </g>
  </g>
</svg>
