<?xml version="1.0" encoding="UTF-8" standalone="no"?>
<!-- Created with Inkscape (http://www.inkscape.org/) -->

<svg
   xmlns:dc="http://purl.org/dc/elements/1.1/"
   xmlns:cc="http://creativecommons.org/ns#"
   xmlns:rdf="http://www.w3.org/1999/02/22-rdf-syntax-ns#"
   xmlns:svg="http://www.w3.org/2000/svg"
   xmlns="http://www.w3.org/2000/svg"
   xmlns:sodipodi="http://sodipodi.sourceforge.net/DTD/sodipodi-0.dtd"
   xmlns:inkscape="http://www.inkscape.org/namespaces/inkscape"
   width="139.9588mm"
   height="166.55615mm"
   viewBox="0 0 139.9588 166.55615"
   version="1.1"
   id="svg8"
   inkscape:version="0.92.1 r15371"
   sodipodi:docname="lock.svg">
  <defs
     id="defs2" />
  <sodipodi:namedview
     id="base"
     pagecolor="#ffffff"
     bordercolor="#666666"
     borderopacity="1.0"
     inkscape:pageopacity="0.0"
     inkscape:pageshadow="2"
     inkscape:zoom="0.49497475"
     inkscape:cx="26.908292"
     inkscape:cy="284.84982"
     inkscape:document-units="mm"
     inkscape:current-layer="layer1"
     showgrid="false"
     inkscape:window-width="1366"
     inkscape:window-height="744"
     inkscape:window-x="0"
     inkscape:window-y="0"
     inkscape:window-maximized="1"
     fit-margin-top="20"
     fit-margin-left="20"
     fit-margin-right="20"
     fit-margin-bottom="20" />
  <metadata
     id="metadata5">
    <rdf:RDF>
      <cc:Work
         rdf:about="">
        <dc:format>image/svg+xml</dc:format>
        <dc:type
           rdf:resource="http://purl.org/dc/dcmitype/StillImage" />
        <dc:title />
      </cc:Work>
    </rdf:RDF>
  </metadata>
  <g
     inkscape:label="Layer 1"
     inkscape:groupmode="layer"
     id="layer1"
     transform="translate(-45.562546,-58.080486)">
    <path
       style="stroke-width:1.72881341;fill:#000000"
       d="M 264.49023 75.589844 A 154.55334 154.55334 0 0 0 109.93555 230.14453 A 154.55334 154.55334 0 0 0 109.95117 230.44922 L 109.95117 293.66406 L 94.675781 293.66406 C 84.102769 293.66406 75.589844 302.17699 75.589844 312.75 L 75.589844 534.82812 C 75.589844 545.40114 84.102769 553.91211 94.675781 553.91211 L 434.30273 553.91211 C 444.87575 553.91211 453.38672 545.40114 453.38672 534.82812 L 453.38672 312.75 C 453.38672 302.17699 444.87575 293.66406 434.30273 293.66406 L 419.02344 293.66406 L 419.02344 230.44922 L 419.03125 230.44922 A 154.55334 154.55334 0 0 0 419.04297 230.14453 A 154.55334 154.55334 0 0 0 264.49023 75.589844 z M 264.49023 113.13672 A 117.00649 117.00649 0 0 1 381.49609 230.14453 A 117.00649 117.00649 0 0 1 381.48047 230.44922 L 381.48047 293.66406 L 147.49414 293.66406 L 147.49414 230.44922 A 117.00649 117.00649 0 0 1 147.48242 230.14453 A 117.00649 117.00649 0 0 1 264.49023 113.13672 z M 264.48828 365.35742 A 30.304531 30.304531 0 0 1 294.79297 395.66211 A 30.304531 30.304531 0 0 1 278.80078 422.34766 L 278.80078 491.62695 L 250.17969 491.62695 L 250.17969 422.36328 A 30.304531 30.304531 0 0 1 234.18555 395.66211 A 30.304531 30.304531 0 0 1 264.48828 365.35742 z "
       transform="matrix(0.26458333,0,0,0.26458333,45.562546,58.080486)"
       id="path3682" />
  </g>
</svg>
