<?xml version="1.0" encoding="UTF-8" standalone="no"?>
<!-- Created with Inkscape (http://www.inkscape.org/) -->

<svg
   xmlns:dc="http://purl.org/dc/elements/1.1/"
   xmlns:cc="http://creativecommons.org/ns#"
   xmlns:rdf="http://www.w3.org/1999/02/22-rdf-syntax-ns#"
   xmlns:svg="http://www.w3.org/2000/svg"
   xmlns="http://www.w3.org/2000/svg"
   xmlns:sodipodi="http://sodipodi.sourceforge.net/DTD/sodipodi-0.dtd"
   xmlns:inkscape="http://www.inkscape.org/namespaces/inkscape"
   width="118.96256mm"
   height="95.497177mm"
   viewBox="0 0 118.96256 95.497169"
   version="1.1"
   id="svg8"
   inkscape:version="0.92.1 r15371"
   sodipodi:docname="si-voto.svg">
  <defs
     id="defs2" />
  <sodipodi:namedview
     id="base"
     pagecolor="#ffffff"
     bordercolor="#666666"
     borderopacity="1.0"
     inkscape:pageopacity="0.0"
     inkscape:pageshadow="2"
     inkscape:zoom="0.9899495"
     inkscape:cx="54.601028"
     inkscape:cy="195.98109"
     inkscape:document-units="mm"
     inkscape:current-layer="layer1"
     showgrid="false"
     inkscape:window-width="1366"
     inkscape:window-height="744"
     inkscape:window-x="0"
     inkscape:window-y="0"
     inkscape:window-maximized="1"
     fit-margin-top="10"
     fit-margin-left="10"
     fit-margin-right="10"
     fit-margin-bottom="10" />
  <metadata
     id="metadata5">
    <rdf:RDF>
      <cc:Work
         rdf:about="">
        <dc:format>image/svg+xml</dc:format>
        <dc:type
           rdf:resource="http://purl.org/dc/dcmitype/StillImage" />
        <dc:title></dc:title>
      </cc:Work>
    </rdf:RDF>
  </metadata>
  <g
     inkscape:label="Layer 1"
     inkscape:groupmode="layer"
     id="layer1"
     transform="translate(-60.850915,-104.45122)">
    <path
       style="fill:#ffffff;stroke-width:0.18850048"
       d="m 161.33208,119.21375 c -0.60278,0 -1.20587,0.23098 -1.66774,0.69287 l -56.86675,56.86722 -21.798005,-21.79806 c -0.923767,-0.92376 -2.410774,-0.92376 -3.334541,0 l -6.121304,6.12131 c -0.923766,0.92377 -0.923766,2.41126 0,3.33502 l 23.464794,23.46484 6.121316,6.12129 c 0.51962,0.51963 1.21762,0.74681 1.89327,0.68186 0.52551,-0.0505 1.0376,-0.27771 1.44175,-0.68186 l 6.1213,-6.12129 58.53449,-58.53449 c 0.92376,-0.92377 0.92376,-2.41125 0,-3.33502 l -6.12131,-6.12082 c -0.46187,-0.46189 -1.06448,-0.69287 -1.66727,-0.69287 z"
       id="rect70"
       inkscape:connector-curvature="0" />
  </g>
</svg>
